<svg preserveAspectRatio="none" overflow="visible" style="display: block;" width="43.3675" height="44" viewBox="0 0 43.3675 44" fill="none" xmlns="http://www.w3.org/2000/svg">
<g id="Mask group">
<mask id="mask0_0_12" style="mask-type:luminance" maskUnits="userSpaceOnUse" x="0" y="0" width="44" height="44">
<g id="Group">
<path id="Vector" fill-rule="evenodd" clip-rule="evenodd" d="M13.0123 0C20.1987 0 26.0246 5.82828 26.0246 13.0178V17.9651H30.3551C37.5412 17.9651 43.3675 23.7933 43.3675 30.9829C43.3675 38.1717 37.5412 44 30.3551 44H-4.8398e-05V13.0178C-4.8398e-05 5.82794 5.82583 0 13.0123 0Z" fill="url(#paint0_linear_0_12)"/>
</g>
</mask>
<g mask="url(#mask0_0_12)">
<g id="Vector_2" filter="url(#filter0_f_0_12)">
<path d="M24.233 26.2593C34.466 26.2593 42.7614 17.9821 42.7614 7.77172C42.7614 -2.43866 34.466 -10.7158 24.233 -10.7158C14 -10.7158 5.70457 -2.43866 5.70457 7.77172C5.70457 17.9821 14 26.2593 24.233 26.2593Z" fill="#FE7B02"/>
</g>
</g>
</g>
<defs>
<filter id="filter0_f_0_12" x="0.930969" y="-15.4894" width="46.604" height="46.5223" filterUnits="userSpaceOnUse" color-interpolation-filters="sRGB">
<feFlood flood-opacity="0" result="BackgroundImageFix"/>
<feBlend mode="normal" in="SourceGraphic" in2="BackgroundImageFix" result="shape"/>
<feGaussianBlur stdDeviation="2.3868" result="effect1_foregroundBlur_0_12"/>
</filter>
<linearGradient id="paint0_linear_0_12" x1="14.5939" y1="7.73222" x2="27.7545" y2="44.0025" gradientUnits="userSpaceOnUse">
<stop offset="0.025" stop-color="#FF8E63"/>
<stop offset="0.56" stop-color="#FF7EB0"/>
<stop offset="0.95" stop-color="#4B73FF"/>
</linearGradient>
</defs>
</svg>
